<svg xmlns="http://www.w3.org/2000/svg" width="120" height="120" viewBox="0 0 120 120">
  <g fill="none" stroke="currentColor" stroke-width="1" opacity="0.6">
    <path d="M60 20 C 30 30, 25 60, 50 75 C 70 85, 80 70, 75 55 C 72 45, 60 42, 55 50 C 51 56, 56 64, 62 62"/>
    <path d="M20 80 C 35 70, 50 78, 48 90 C 46 100, 32 100, 28 92"/>
    <path d="M90 90 C 105 82, 112 95, 102 105 C 95 112, 85 108, 88 100"/>
    <circle cx="60" cy="60" r="2"/>
    <circle cx="30" cy="90" r="1.5"/>
    <circle cx="95" cy="100" r="1.5"/>
  </g>
</svg>
